PathFileType	4	(X/Y/Z)	C:/Users/opensim2020/Desktop/walking_exp_matlab/subject03_walking07_straight_01.trc																																																																																																																																								
DataRate	CameraRate	NumFrames	NumMarkers	Units	OrigDataRate	OrigDataStartFrame	OrigNumFrames																																																																																																																																				
100	100	4	46	mm	100	858	310																																																																																																																																				
Frame#	Time	LFHD			RFHD			LBHD			RBHD			C7			T10			CLAV			STRN			RBAK			LSHO			LUPA			LELB			LFRM			LWRA			LWRB			LFIN			RSHO			RUPA			RELB			RFRM			RWRA			RWRB			RFIN			LASI			RASI			LPSI			RPSI			LTHI			LKNE			LTIB			LANK			LHEE			LTOE			RTHI			RKNE			RTIB			RANK			RHEE			RTOE			*39			*40			*41			*42			*43			*44			*45		
		X1	Y1	Z1	X2	Y2	Z2	X3	Y3	Z3	X4	Y4	Z4	X5	Y5	Z5	X6	Y6	Z6	X7	Y7	Z7	X8	Y8	Z8	X9	Y9	Z9	X10	Y10	Z10	X11	Y11	Z11	X12	Y12	Z12	X13	Y13	Z13	X14	Y14	Z14	X15	Y15	Z15	X16	Y16	Z16	X17	Y17	Z17	X18	Y18	Z18	X19	Y19	Z19	X20	Y20	Z20	X21	Y21	Z21	X22	Y22	Z22	X23	Y23	Z23	X24	Y24	Z24	X25	Y25	Z25	X26	Y26	Z26	X27	Y27	Z27	X28	Y28	Z28	X29	Y29	Z29	X30	Y30	Z30	X31	Y31	Z31	X32	Y32	Z32	X33	Y33	Z33	X34	Y34	Z34	X35	Y35	Z35	X36	Y36	Z36	X37	Y37	Z37	X38	Y38	Z38	X39	Y39	Z39	X40	Y40	Z40	X41	Y41	Z41	X42	Y42	Z42	X43	Y43	Z43	X44	Y44	Z44	X45	Y45	Z45	X46	Y46	Z46
																																																																																																																																											
194	1.93	331.21848	1620.70813	1391.21997	328.71115	1627.2937	1524.17273	204.30167	1574.35132	1394.82336	206.3147	1580.83093	1526.05139	176.97035	1417.97925	1456.85327	141.26151	1105.69116	1452.61316	298.26694	1340.21362	1453.12903	340.76868	1176.29517	1441.60376	124.11562	1242.94739	1546.90637	247.4417	1384.18237	1301.80225	258.93839	1195.22913	1222.95605	291.16495	1077.87317	1206.3479	366.73187	973.97681	1208.37317	437.78064	881.25372	1243.05945	413.5939	870.51141	1193.99597	470.6647	810.96631	1203.74219	253.59613	1363.45679	1614.07422	230.01451	1140.27563	1679.87756	230.60138	1026.68408	1688.771	223.84821	889.60388	1689.1322	233.54565	789.80646	1651.07971	205.26242	790.59369	1697.82935	205.62378	714.05188	1681.77795	300.72382	938.12128	1328.78857	315.6254	947.94763	1565.09265	143.05377	962.08948	1388.83484	153.26588	973.93311	1536.05859	224.95349	635.95087	1276.40649	211.90865	455.87469	1292.33289	55.7366	328.75397	1301.29358	-88.22185	181.89902	1346.651	-132.3231	195.1951	1389.80542	-38.29623	41.1464	1368.6272	297.27014	651.57245	1607.38757	343.39282	477.09442	1567.22632	327.35352	287.24817	1569.75574	335.33405	72.29616	1518.86108	292.31769	39.94959	1468.09827	478.48685	37.29822	1499.15466	NaN	NaN	NaN	246.80783	1681.08484	1442.27979	NaN	NaN	NaN	NaN	NaN	NaN	NaN	NaN	NaN	NaN	NaN	NaN	NaN	NaN	NaN
195	1.94	341.34592	1621.3053	1392.05859	339.22922	1627.88867	1525.06616	214.43742	1575.05115	1396.09229	217.03441	1581.49353	1527.2146	187.21854	1418.54297	1458.41626	151.70921	1106.34534	1454.6543	308.60559	1340.89539	1453.95654	351.11551	1177.02148	1442.28857	135.33658	1243.84131	1548.94482	256.97018	1385.11292	1303.26526	267.84445	1196.19165	1224.46228	298.31213	1078.21411	1207.83289	372.61725	973.26282	1209.55469	442.58032	879.32227	1243.92944	417.99112	869.12659	1195.00134	473.67804	807.75079	1204.98706	264.9328	1364.58936	1615.01294	242.48268	1141.57397	1681.81677	243.66742	1028.01611	1690.86011	238.36406	890.87354	1691.09839	248.88661	791.13892	1652.97534	220.74652	791.70569	1699.89172	221.5939	715.10193	1683.73315	311.36966	939.16827	1330.68054	326.23044	948.2677	1566.26367	152.77597	962.60077	1390.83484	164.2092	974.68146	1537.9707	239.90608	634.97498	1277.03918	232.15401	454.76144	1292.19287	75.33965	329.93185	1300.63354	-72.89143	188.56882	1348.19971	-116.52367	201.58665	1392.20898	-24.70651	46.48017	1365.22656	304.50748	651.76526	1608.38281	349.09772	476.75378	1568.19373	330.65234	287.29501	1570.2572	335.43365	72.35316	1518.75867	292.32501	40.02106	1468.12256	478.58408	37.1981	1499.03174	NaN	NaN	NaN	257.06384	1682.07056	1444.85352	NaN	NaN	NaN	NaN	NaN	NaN	NaN	NaN	NaN	NaN	NaN	NaN	NaN	NaN	NaN
196	1.95	351.35754	1621.91528	1392.90259	349.65146	1628.45081	1525.90796	224.52074	1575.59998	1397.33862	227.30342	1582.02551	1528.52173	197.15994	1418.98682	1459.86365	162.24756	1106.67249	1456.70911	318.73792	1341.51025	1454.72815	361.24106	1177.51477	1442.84058	145.36481	1244.65125	1551.20569	266.32645	1385.70557	1304.45337	276.60571	1196.46545	1225.74829	305.47281	1078.07141	1209.2002	378.58569	972.16309	1210.85278	447.233	876.92841	1244.60193	422.3631	867.31128	1195.86255	476.3996	804.03455	1206.19495	276.29428	1365.31128	1615.91663	255.15701	1142.47522	1683.8512	256.84515	1028.96521	1693.10034	253.08261	891.72668	1693.15234	264.77939	792.27399	1654.68579	236.61339	792.43689	1701.79712	238.18622	715.88873	1685.80688	320.4342	939.19678	1331.24658	336.86832	948.19971	1567.21252	162.51578	962.44592	1392.65881	174.60368	975.24225	1539.9325	254.66382	634.29602	1277.77246	252.74037	453.91959	1292.01636	95.34258	331.52521	1301.31409	-56.34836	194.66507	1349.70276	-99.64731	206.86101	1394.35962	-8.38127	51.29649	1361.52356	311.64792	651.89984	1609.125	354.64832	476.4938	1569.16895	333.79291	287.32156	1570.85889	335.54953	72.41167	1518.74731	292.39847	40.1279	1468.18311	478.72433	37.0438	1498.90051	NaN	NaN	NaN	267.22412	1682.72388	1446.23389	NaN	NaN	NaN	NaN	NaN	NaN	NaN	NaN	NaN	NaN	NaN	NaN	NaN	NaN	NaN
197	1.96	361.28448	1622.47534	1393.75806	360.017	1628.97937	1526.67798	234.49458	1576.04712	1398.56995	237.92062	1582.42114	1529.61841	207.16991	1419.34558	1461.26794	172.46179	1106.95654	1458.69653	328.69241	1341.95093	1455.43237	371.13565	1177.8324	1443.276	156.2231	1244.81067	1553.2406	275.51321	1385.91663	1305.3562	285.06308	1196.46985	1226.91602	312.36337	1077.48303	1210.51782	384.4014	970.57489	1211.66907	451.84604	874.18555	1245.26868	426.64536	865.03784	1196.63684	478.96469	799.98859	1207.32397	287.49557	1365.76233	1616.83691	267.71558	1143.03418	1685.74854	270.18085	1029.48425	1695.30627	268.06528	892.19238	1695.13562	280.44061	792.90619	1656.57043	252.8788	792.80194	1703.71765	255.40172	716.33099	1687.79968	329.491	939.12189	1331.87622	347.43311	947.89404	1568.05591	171.89424	961.81512	1394.5188	184.83131	975.44775	1541.75647	269.29147	633.99335	1278.52466	273.41434	453.58673	1291.9137	115.1519	333.71567	1302.62549	-38.81388	199.44188	1350.96179	-81.73456	210.98761	1396.32507	9.36797	56.02101	1358.69995	319.34622	652.25818	1610.63989	359.9155	476.1701	1570.27515	336.7399	287.22949	1571.51563	335.91388	72.4837	1519.01416	292.40259	40.3112	1468.27673	478.83392	36.90314	1498.79529	NaN	NaN	NaN	277.04361	1683.02759	1447.05017	NaN	NaN	NaN	NaN	NaN	NaN	NaN	NaN	NaN	NaN	NaN	NaN	NaN	NaN	NaN
